<svg width="99" height="253" viewBox="0 0 99 253" fill="none" xmlns="http://www.w3.org/2000/svg">
<path fill-rule="evenodd" clip-rule="evenodd" d="M58.2991 64.9024C73.6943 66.0251 87.0847 54.455 88.2074 39.0598C89.3301 23.6647 77.7599 10.2743 62.3648 9.15157C46.9696 8.02887 33.5792 19.599 32.4565 34.9942C31.3338 50.3893 42.9039 63.7797 58.2991 64.9024ZM57.9354 69.8892C76.0847 71.2127 91.8706 57.5728 93.1941 39.4235C94.5177 21.2742 80.8777 5.48836 62.7284 4.16482C44.5791 2.84127 28.7933 16.4812 27.4697 34.6305C26.1462 52.7798 39.7861 68.5656 57.9354 69.8892Z" fill="black"/>
<path fill-rule="evenodd" clip-rule="evenodd" d="M52.8937 91.2123L54.4671 69.6363L60.4512 70.0726L52.788 175.155L80.5526 250.321L74.9243 252.4L48.6937 181.387L6.00723 230.691L1.47109 226.764L46.8291 174.374L52.2622 99.8713L13.3298 91.6413L14.5708 85.771L44.9499 92.1929L19.2745 69.461L23.2518 64.9687L52.8937 91.2123Z" fill="black"/>
<circle cx="47.4167" cy="27.1338" r="3.17789" fill="black"/>
<path d="M40.9903 46.6955C49.0881 45.5185 66.7242 44.4639 72.4867 49.6615" stroke="black" stroke-width="4"/>
<circle cx="71.4274" cy="28.2637" r="3.17789" fill="black"/>
</svg>
