<svg width="99" height="253" viewBox="0 0 99 253" fill="none" xmlns="http://www.w3.org/2000/svg">
<path fill-rule="evenodd" clip-rule="evenodd" d="M58.2991 64.5988C73.6943 65.7215 87.0847 54.1513 88.2074 38.7562C89.3301 23.361 77.7599 9.97059 62.3648 8.84789C46.9696 7.72519 33.5792 19.2953 32.4565 34.6905C31.3338 50.0857 42.9039 63.4761 58.2991 64.5988ZM57.9354 69.5855C76.0847 70.9091 91.8706 57.2691 93.1941 39.1198C94.5177 20.9705 80.8777 5.18468 62.7284 3.86114C44.5791 2.53759 28.7933 16.1775 27.4697 34.3268C26.1462 52.4761 39.7861 68.262 57.9354 69.5855Z" fill="black"/>
<path fill-rule="evenodd" clip-rule="evenodd" d="M52.8937 90.9086L54.4671 69.3326L60.4512 69.769L52.788 174.851L80.5526 250.018L74.9243 252.097L48.6937 181.083L6.00723 230.388L1.47109 226.46L46.8291 174.07L52.2622 99.5676L13.3298 91.3376L14.5708 85.4674L44.9499 91.8892L19.2745 69.1573L23.2518 64.665L52.8937 90.9086Z" fill="black"/>
<path d="M40.9903 46.3918L72.4867 49.3579" stroke="black" stroke-width="4"/>
<path d="M44.4066 21.9058L50.6889 31.2084M43.0777 29.7586L51.7762 23.5971M67.2403 23.5971L75.8181 31.2084M66.6363 31.2084L75.214 24.8053" stroke="black" stroke-width="2"/>
</svg>
