<svg width="99" height="252" viewBox="0 0 99 252" fill="none" xmlns="http://www.w3.org/2000/svg">
<path fill-rule="evenodd" clip-rule="evenodd" d="M58.2991 64.0037C73.6943 65.1264 87.0847 53.5562 88.2074 38.1611C89.3301 22.7659 77.7599 9.3755 62.3648 8.2528C46.9696 7.1301 33.5792 18.7002 32.4565 34.0954C31.3338 49.4906 42.9039 62.881 58.2991 64.0037ZM57.9354 68.9904C76.0847 70.314 91.8706 56.674 93.1941 38.5247C94.5177 20.3754 80.8777 4.58959 62.7284 3.26604C44.5791 1.9425 28.7933 15.5825 27.4697 33.7317C26.1462 51.881 39.7861 67.6669 57.9354 68.9904Z" fill="black"/>
<path fill-rule="evenodd" clip-rule="evenodd" d="M52.8937 90.3135L54.4671 68.7375L60.4512 69.1739L52.788 174.256L80.5526 249.423L74.9243 251.501L48.6937 180.488L6.00723 229.793L1.47109 225.865L46.8291 173.475L52.2622 98.9725L13.3298 90.7425L14.5708 84.8723L44.9499 91.2942L19.2745 68.5622L23.2518 64.0699L52.8937 90.3135Z" fill="black"/>
<circle cx="47.4167" cy="26.235" r="3.17789" fill="black"/>
<path d="M40.9903 45.7967C48.5662 56.4081 64.6779 53.8139 72.4867 48.7627" stroke="black" stroke-width="4"/>
<circle cx="71.4274" cy="27.365" r="3.17789" fill="black"/>
</svg>
