<svg width="99" height="253" viewBox="0 0 99 253" fill="none" xmlns="http://www.w3.org/2000/svg">
<path fill-rule="evenodd" clip-rule="evenodd" d="M58.2991 64.8012C73.6943 65.9239 87.0847 54.3538 88.2074 38.9586C89.3301 23.5634 77.7599 10.173 62.3648 9.05035C46.9696 7.92764 33.5792 19.4978 32.4565 34.8929C31.3338 50.2881 42.9039 63.6785 58.2991 64.8012ZM57.9354 69.788C76.0847 71.1115 91.8706 57.4716 93.1941 39.3223C94.5177 21.173 80.8777 5.38714 62.7284 4.06359C44.5791 2.74004 28.7933 16.38 27.4697 34.5293C26.1462 52.6786 39.7861 68.4644 57.9354 69.788Z" fill="black"/>
<path fill-rule="evenodd" clip-rule="evenodd" d="M52.8937 91.1111L54.4671 69.535L60.4512 69.9714L52.788 175.054L80.5526 250.22L74.9243 252.299L48.6937 181.286L6.00723 230.59L1.47109 226.663L46.8291 174.273L52.2622 99.7701L13.3298 91.5401L14.5708 85.6698L44.9499 92.0917L19.2745 69.3598L23.2518 64.8674L52.8937 91.1111Z" fill="black"/>
<circle cx="47.4167" cy="27.0326" r="3.17789" fill="black"/>
<path d="M40.9903 46.5943C49.0881 45.4173 65.6265 36.0035 72.4867 49.5603" stroke="black" stroke-width="4"/>
<circle cx="71.4274" cy="28.1625" r="3.17789" fill="black"/>
</svg>
