<svg width="99" height="253" viewBox="0 0 99 253" fill="none" xmlns="http://www.w3.org/2000/svg">
<path fill-rule="evenodd" clip-rule="evenodd" d="M58.2991 64.6999C73.6943 65.8227 87.0847 54.2525 88.2074 38.8574C89.3301 23.4622 77.7599 10.0718 62.3648 8.94909C46.9696 7.82639 33.5792 19.3965 32.4565 34.7917C31.3338 50.1869 42.9039 63.5772 58.2991 64.6999ZM57.9354 69.6867C76.0847 71.0103 91.8706 57.3703 93.1941 39.221C94.5177 21.0717 80.8777 5.28588 62.7284 3.96233C44.5791 2.63878 28.7933 16.2787 27.4697 34.428C26.1462 52.5773 39.7861 68.3632 57.9354 69.6867Z" fill="black"/>
<path fill-rule="evenodd" clip-rule="evenodd" d="M52.8937 91.0098L54.4671 69.4338L60.4512 69.8702L52.788 174.953L80.5526 250.119L74.9243 252.198L48.6937 181.184L6.00723 230.489L1.47109 226.562L46.8291 174.171L52.2622 99.6688L13.3298 91.4388L14.5708 85.5686L44.9499 91.9904L19.2745 69.2585L23.2518 64.7662L52.8937 91.0098Z" fill="black"/>
<circle cx="47.4167" cy="26.9313" r="3.17789" fill="black"/>
<path d="M40.9903 46.493C49.0102 37.9498 65.6265 35.9022 72.4867 49.459" stroke="black" stroke-width="4"/>
<circle cx="71.4274" cy="28.0612" r="3.17789" fill="black"/>
</svg>
